<svg xmlns="http://www.w3.org/2000/svg" xmlns:xlink="http://www.w3.org/1999/xlink" width="1080" zoomAndPan="magnify" viewBox="0 0 810 809.999993" height="1080" preserveAspectRatio="xMidYMid meet" version="1.0"><defs><clipPath id="db6ad79d81"><path d="M 152.027344 290 L 658 290 L 658 520.910156 L 152.027344 520.910156 Z M 152.027344 290 " clip-rule="nonzero"/></clipPath></defs><g clip-path="url(#db6ad79d81)"><path fill="#d3af44" d="M 657.660156 408.621094 C 651.316406 408.589844 644.949219 408.773438 638.597656 408.792969 C 637.65625 408.800781 636.710938 408.734375 635.761719 408.703125 C 636.796875 406.742188 637.921875 404.808594 638.808594 402.78125 C 644.871094 387.445312 645.882812 360.914062 639.820312 345.570312 C 637.960938 341.113281 633.652344 338.835938 629.074219 338.234375 C 620.175781 337.308594 611.269531 337.183594 602.347656 337.863281 C 596.503906 338.191406 590.894531 339.726562 587.003906 344.757812 C 586.941406 344.839844 586.386719 344.703125 586.382812 344.652344 C 585.480469 338.34375 588.789062 337.789062 592.105469 333.378906 C 592.710938 332.65625 593.101562 331.832031 593.277344 330.90625 C 594.304688 323.6875 595.191406 316.453125 596.21875 309.230469 C 596.792969 306.28125 591.832031 309.753906 592.363281 306.761719 C 592.554688 304.777344 592.675781 302.785156 592.890625 300.808594 C 593.097656 298.894531 592.980469 298.710938 591.246094 299.191406 C 588.785156 299.882812 586.359375 300.710938 583.898438 301.402344 C 583.570312 301.453125 583.265625 301.5625 582.984375 301.730469 C 582.703125 301.898438 582.460938 302.117188 582.261719 302.378906 C 582.0625 302.644531 581.921875 302.933594 581.835938 303.253906 C 581.75 303.570312 581.726562 303.894531 581.769531 304.222656 C 581.949219 304.578125 581.261719 314.34375 580.765625 311.238281 C 581.398438 306.761719 578.242188 299.980469 584.671875 298.808594 C 584.976562 298.757812 585.183594 298.164062 585.433594 297.820312 C 585.109375 297.679688 584.773438 297.582031 584.421875 297.527344 C 570.285156 297.503906 556.144531 297.152344 542.011719 297.472656 C 533.578125 297.4375 533.789062 303.453125 528.078125 303.027344 C 526.027344 302.925781 523.851562 303.410156 523.328125 300.429688 C 522.027344 298.199219 518.976562 297.175781 516.433594 297.304688 C 504.519531 297.121094 499.292969 297.617188 483.703125 297.601562 C 482.78125 297.570312 481.875 297.679688 480.984375 297.925781 C 480.09375 298.171875 479.261719 298.546875 478.488281 299.050781 C 477.710938 299.550781 477.027344 300.15625 476.4375 300.867188 C 475.847656 301.574219 475.375 302.355469 475.023438 303.210938 C 481.097656 302.425781 486.746094 302.578125 491.554688 306.933594 C 500.027344 313.535156 507.109375 321.703125 513.574219 330.222656 C 514.09375 331.074219 513.777344 331.066406 512.988281 330.746094 C 502.367188 321.527344 491.304688 310.691406 476.429688 309.957031 C 472.667969 309.773438 470.742188 307.371094 468.472656 305.160156 C 467.03125 303.375 472.292969 304.4375 472.707031 303.320312 C 473.460938 302.390625 472.980469 300.332031 473.121094 298.925781 C 473.171875 296.796875 473.171875 296.753906 475.300781 296.617188 C 477.855469 296.457031 480.425781 296.503906 482.957031 296.238281 C 487.867188 295.871094 486.3125 289.355469 481.679688 290.15625 C 471.90625 290.214844 462.121094 290.0625 452.355469 290.238281 C 448.246094 290.570312 448.457031 295.824219 452.363281 296.214844 C 455.386719 296.28125 458.425781 296.476562 461.453125 296.570312 C 463.847656 296.152344 462.382812 301.585938 462.828125 303.039062 C 462.890625 303.386719 462.890625 303.734375 462.824219 304.078125 C 462.757812 304.425781 462.632812 304.75 462.449219 305.050781 C 462.261719 305.351562 462.03125 305.605469 461.75 305.820312 C 461.46875 306.035156 461.160156 306.191406 460.820312 306.292969 C 458.070312 307.394531 455.492188 308.960938 454.003906 311.644531 C 453.832031 312 453.609375 312.324219 453.339844 312.613281 C 453.066406 312.898438 452.757812 313.140625 452.410156 313.332031 C 452.066406 313.527344 451.699219 313.660156 451.308594 313.738281 C 450.921875 313.820312 450.53125 313.835938 450.136719 313.792969 C 447.195312 313.820312 444.261719 314.011719 441.34375 314.363281 C 438.941406 314.644531 438.582031 315.246094 438.789062 317.519531 C 438.996094 319.820312 439.007812 319.859375 441.632812 319.921875 C 444.382812 319.980469 447.132812 319.972656 449.886719 320.035156 C 450.308594 319.960938 450.722656 320 451.125 320.144531 C 451.527344 320.292969 451.867188 320.527344 452.144531 320.855469 C 453.929688 323.15625 455.828125 325.386719 457.78125 327.558594 C 458.320312 328.0625 458.957031 328.34375 459.691406 328.402344 C 464.023438 328.875 468.386719 329.09375 472.695312 329.71875 C 480.441406 330.65625 487.957031 332.53125 495.238281 335.335938 C 499.664062 337 503.496094 339.550781 506.734375 342.996094 C 507.226562 343.570312 507.683594 344.171875 508.109375 344.796875 C 508.476562 346.265625 505.589844 343.0625 505.082031 342.867188 C 493.351562 334.347656 478.59375 332.023438 464.496094 330.734375 C 447.644531 329.347656 430.492188 327.632812 413.75 330.882812 C 410.082031 331.457031 402.328125 334.214844 408.171875 338.164062 C 411.058594 339.742188 414.339844 340.707031 417.027344 342.648438 C 418.601562 343.824219 418.652344 344.347656 417.679688 346.007812 C 414.335938 352.011719 407.285156 354.035156 401.660156 357.292969 C 393.683594 358.695312 385.460938 356.875 377.199219 357.425781 C 375.890625 357.5 375.566406 356.882812 375.640625 355.714844 C 375.761719 353.722656 375.785156 351.730469 375.890625 349.738281 C 376.027344 347.050781 376.050781 347.011719 373.511719 346.828125 C 369.726562 346.554688 365.941406 346.296875 362.148438 346.136719 C 356.320312 345.894531 357.550781 345.632812 357.484375 350.628906 C 357.421875 354.945312 357.488281 354.945312 361.875 355.308594 C 363.859375 355.46875 365.84375 355.636719 367.828125 355.8125 C 368.242188 355.792969 368.632812 355.878906 369 356.074219 C 369.363281 356.269531 369.65625 356.542969 369.871094 356.898438 C 358.71875 358.96875 347 357.847656 335.773438 359.871094 C 330.75 360.789062 328.441406 363.640625 328.417969 368.765625 C 328.457031 375.875 328.351562 383.011719 328.585938 390.109375 C 328.539062 391.203125 331.203125 390.628906 331.800781 390.445312 C 332.140625 390.316406 332.308594 389.328125 332.308594 388.726562 C 332.378906 381.714844 332.011719 374.675781 332.300781 367.664062 C 332.589844 364.617188 333.789062 363.394531 336.808594 363.308594 C 341.261719 363.179688 345.722656 363.1875 350.1875 363.195312 C 351.851562 363.195312 351.902344 363.292969 351.035156 364.929688 C 348.140625 369.6875 350.378906 374.890625 351.882812 379.710938 C 352.671875 382.226562 352.703125 382.234375 350.382812 383.292969 C 345.457031 385.519531 340.53125 387.742188 335.605469 389.957031 C 332.5625 391.484375 346.25 390.335938 347.089844 390.558594 C 349.027344 390.304688 352.316406 385.097656 353.589844 383.398438 C 359.445312 373.550781 371.375 371.398438 380.914062 366.570312 C 381.96875 366.089844 381.992188 366.59375 382.007812 367.367188 C 382.085938 370.402344 382.183594 373.433594 382.242188 376.472656 C 382.28125 378.621094 382.257812 378.644531 380.039062 378.652344 C 374.910156 378.667969 369.785156 378.722656 364.664062 378.644531 C 363.558594 378.621094 362.496094 378.820312 361.476562 379.238281 C 360.457031 379.660156 359.5625 380.265625 358.796875 381.0625 C 350.785156 390.765625 343.933594 401.433594 336.273438 411.433594 C 324.277344 427.679688 312.054688 443.761719 300.132812 460.054688 C 297.324219 463.503906 298.582031 468.375 304.914062 468.640625 C 306.3125 468.753906 307.707031 468.714844 309.097656 468.523438 C 310.488281 468.332031 311.84375 467.992188 313.160156 467.507812 C 314.480469 467.023438 315.730469 466.402344 316.914062 465.648438 C 318.09375 464.890625 319.183594 464.015625 320.175781 463.023438 C 345.914062 435.816406 369.566406 406.640625 396.152344 380.226562 C 397.480469 378.910156 396.179688 378.625 394.960938 378.796875 C 380.902344 378.457031 385.664062 380.890625 384.386719 366.757812 C 384.351562 366.546875 384.359375 366.339844 384.410156 366.132812 C 384.460938 365.925781 384.546875 365.738281 384.675781 365.566406 C 384.804688 365.398438 384.960938 365.257812 385.144531 365.152344 C 385.332031 365.046875 385.527344 364.980469 385.742188 364.957031 C 394.492188 362.691406 403.050781 359.25 412.183594 358.976562 C 410.113281 367.242188 412.222656 363.574219 414.609375 358.847656 C 418.105469 352.121094 421.707031 345.445312 425.035156 338.636719 C 427.167969 334.386719 431.433594 332.96875 435.59375 333.324219 C 433.359375 334.394531 431.351562 335.792969 429.578125 337.523438 C 427.800781 339.253906 426.351562 341.222656 425.222656 343.429688 C 421.984375 349.648438 418.65625 355.820312 415.394531 362.027344 C 414.886719 363 414.519531 364.050781 414.085938 365.0625 C 415.578125 365.0625 417.050781 364.917969 418.511719 364.621094 C 422.625 363.960938 426.726562 363.171875 430.863281 362.699219 C 443.949219 361.179688 457.097656 360.238281 470.234375 359.300781 C 473.445312 359.019531 476.660156 358.898438 479.882812 358.941406 C 474.863281 360.714844 469.414062 360.992188 464.207031 362.097656 C 451.132812 364.324219 438.226562 367.296875 425.429688 370.722656 C 415.953125 373.613281 405.117188 375.296875 397.714844 382.398438 C 383.660156 396.917969 370.796875 412.503906 357.339844 427.570312 C 346.636719 439.625 335.863281 451.617188 325.011719 463.546875 C 324.210938 464.535156 323.351562 465.464844 322.433594 466.339844 C 321.515625 467.21875 320.542969 468.03125 319.519531 468.785156 C 318.5 469.539062 317.433594 470.226562 316.324219 470.84375 C 315.214844 471.460938 314.070312 472.007812 312.894531 472.480469 C 311.714844 472.957031 310.511719 473.355469 309.28125 473.675781 C 308.054688 473.996094 306.808594 474.238281 305.550781 474.402344 C 304.292969 474.566406 303.027344 474.652344 301.757812 474.65625 C 300.488281 474.65625 299.222656 474.582031 297.960938 474.425781 C 277.621094 473.628906 298.105469 454.957031 303.175781 447.699219 C 309.265625 440.191406 315.40625 432.734375 321.511719 425.242188 C 324.984375 420.945312 324.371094 421.796875 319.664062 422.09375 C 316.730469 422.703125 313.664062 422.9375 310.671875 423.335938 C 308.828125 423.050781 309.699219 421.625 311.300781 421.253906 C 314.433594 420.15625 317.566406 419.074219 320.703125 418.007812 C 324.621094 416.457031 329.703125 416.023438 331.980469 412.046875 C 332.890625 409.183594 332.066406 405.097656 332.320312 401.96875 C 332.335938 400.105469 332.449219 400.015625 334.296875 400.5625 C 335.667969 400.933594 337 401.410156 338.296875 401.992188 C 338.449219 402.101562 338.617188 402.171875 338.800781 402.207031 C 338.988281 402.242188 339.167969 402.234375 339.351562 402.1875 C 339.535156 402.140625 339.695312 402.058594 339.84375 401.9375 C 339.988281 401.820312 340.101562 401.675781 340.179688 401.503906 C 341.980469 399.066406 343.800781 396.648438 345.628906 394.222656 C 346.390625 393.277344 345.035156 393.214844 344.398438 393.234375 C 333.203125 392.78125 322.015625 392.492188 310.847656 393.855469 C 308.910156 394.09375 308.902344 394.054688 308.445312 392.070312 C 307.472656 387.800781 305.964844 383.726562 303.933594 379.847656 C 296.953125 365.699219 283.539062 364.402344 269.421875 363.703125 C 257.449219 362.917969 243.75 362.03125 234.117188 370.492188 C 218.828125 385.738281 216.988281 411.46875 220.242188 431.773438 C 220.785156 434.175781 221.398438 436.554688 222.050781 438.925781 C 222.402344 440.210938 221.46875 440.402344 220.691406 440.589844 C 219.695312 440.832031 219.652344 440.003906 219.679688 439.335938 C 219.742188 437.824219 218.90625 437.542969 217.6875 437.847656 C 212.414062 439 207.398438 441.304688 201.933594 441.449219 C 200.699219 441.421875 199.488281 441.574219 198.300781 441.898438 C 188.84375 444.664062 179.425781 447.546875 169.957031 450.277344 C 168.671875 450.648438 168.3125 451.175781 168.3125 452.398438 C 168.351562 460.28125 168.359375 468.15625 168.328125 476.027344 C 168.355469 476.25 168.394531 476.46875 168.445312 476.683594 C 168.496094 476.902344 168.5625 477.113281 168.644531 477.320312 C 168.722656 477.527344 168.8125 477.730469 168.917969 477.925781 C 169.023438 478.125 169.140625 478.3125 169.269531 478.492188 C 169.398438 478.675781 169.539062 478.847656 169.6875 479.011719 C 169.839844 479.175781 170 479.328125 170.171875 479.472656 C 170.339844 479.613281 170.519531 479.746094 170.707031 479.867188 C 170.894531 479.988281 171.085938 480.097656 171.289062 480.191406 C 171.488281 480.289062 171.695312 480.371094 171.90625 480.441406 C 172.117188 480.511719 172.332031 480.566406 172.550781 480.609375 C 172.769531 480.652344 172.988281 480.679688 173.210938 480.695312 C 173.433594 480.710938 173.65625 480.710938 173.878906 480.699219 C 174.097656 480.683594 174.320312 480.65625 174.539062 480.617188 C 174.757812 480.574219 174.972656 480.519531 175.183594 480.449219 C 175.394531 480.382812 175.601562 480.300781 175.804688 480.203125 C 176.003906 480.109375 176.199219 480.003906 176.386719 479.882812 C 177.996094 478.953125 179.722656 478.402344 181.574219 478.226562 C 183.421875 478.050781 185.226562 478.265625 186.980469 478.871094 C 187.878906 479.03125 187.746094 479.222656 187.085938 479.554688 C 182.402344 481.617188 177.730469 483.683594 173.03125 485.71875 C 166.425781 488.578125 159.804688 491.410156 153.203125 494.285156 C 152.761719 494.566406 152.367188 494.902344 152.027344 495.292969 C 172.257812 498.390625 193.027344 499.675781 213.433594 502.21875 C 287.652344 510.882812 362.234375 515.582031 436.777344 520.515625 C 438.992188 520.667969 441.089844 520.242188 443.070312 519.238281 C 484.527344 499.167969 526.546875 480.285156 567.472656 459.136719 C 583.402344 450.46875 600.136719 442.949219 615.699219 433.75 C 592.941406 442.378906 570.589844 452.820312 548.183594 462.507812 C 543.050781 464.929688 538.027344 466.335938 532.378906 465.730469 C 526.742188 465.457031 527.25 466.316406 530.335938 461.9375 C 530.925781 460.960938 531.65625 460.101562 532.53125 459.363281 C 533.402344 458.628906 534.371094 458.050781 535.4375 457.636719 C 556.960938 448.445312 578.289062 438.785156 599.921875 429.847656 C 618.824219 422.046875 638.363281 415.957031 657.710938 409.347656 C 657.839844 409.292969 658.015625 409.082031 658 408.976562 C 657.949219 408.796875 657.835938 408.679688 657.660156 408.621094 Z M 448.898438 317.484375 C 446.996094 317.640625 445.09375 317.597656 443.199219 317.347656 C 442.402344 317.074219 442.496094 316.390625 443.09375 316.160156 C 444.320312 316.050781 445.617188 316.128906 446.84375 316.125 C 448.222656 316.042969 449.59375 316.097656 450.960938 316.292969 C 451.839844 316.675781 450.890625 317.382812 448.898438 317.484375 Z M 380.613281 362.78125 C 376.351562 362.78125 372.089844 363.214844 367.84375 362.796875 C 367.804688 362.621094 360.140625 363.046875 357.25 362.441406 C 364.085938 358.640625 372.753906 360.636719 380.316406 360.433594 C 380.917969 360.449219 381.730469 360.160156 381.90625 361.148438 C 382.085938 362.164062 381.800781 362.765625 380.613281 362.78125 Z M 434.351562 345.238281 C 433.472656 345.652344 432.441406 343.671875 431.625 343.117188 C 431.691406 342.878906 431.832031 342.6875 432.035156 342.546875 C 437.671875 340.917969 438.972656 339.796875 434.351562 345.238281 Z M 310.191406 427.617188 C 311.226562 427.894531 320.390625 426.203125 318.757812 427.90625 C 314.972656 430.726562 312.296875 435.15625 307.058594 435.871094 C 305.777344 436.039062 305.652344 435.992188 306.035156 434.875 C 306.632812 433.09375 307.347656 431.339844 307.835938 429.53125 C 307.875 429.25 307.960938 428.988281 308.101562 428.742188 C 308.238281 428.496094 308.417969 428.285156 308.636719 428.109375 C 308.855469 427.929688 309.097656 427.796875 309.367188 427.714844 C 309.636719 427.628906 309.910156 427.597656 310.191406 427.617188 Z M 328.433594 402.421875 C 328.476562 404.9375 329.527344 408.523438 327.984375 410.765625 C 327.179688 411.9375 325.011719 412.195312 323.425781 412.792969 C 319.359375 414.335938 315.261719 415.828125 311.195312 417.378906 C 310.398438 417.683594 310.007812 417.773438 310.070312 416.679688 C 310.445312 414.285156 309.460938 411.015625 311.011719 409.046875 C 315.871094 406.121094 320.378906 402.570312 325.796875 400.625 C 328.378906 399.691406 328.386719 399.691406 328.433594 402.421875 Z M 299.90625 399.109375 C 300.734375 398.742188 316.976562 396.488281 313.6875 398.039062 C 308.996094 398.933594 304.667969 400.074219 299.871094 400.644531 C 299.800781 400.585938 299.332031 400.347656 299.351562 400.164062 C 299.398438 399.78125 299.640625 399.167969 299.90625 399.101562 Z M 539.820312 322.527344 C 554.21875 322.449219 560.453125 322.480469 577.953125 322.648438 C 579.96875 322.664062 580 322.769531 580.082031 324.671875 C 580.183594 326.945312 580.183594 329.222656 580.296875 331.496094 C 580.582031 336.644531 573.09375 338.128906 573.074219 343.058594 C 573.066406 346.367188 572.90625 349.695312 572.855469 353.007812 C 572.839844 354.222656 572.3125 354.671875 571.113281 354.625 C 564.957031 354.429688 558.777344 354.496094 552.636719 354.019531 C 547.65625 353.628906 544.121094 350.605469 541.699219 346.320312 C 539.742188 342.878906 538.691406 339.183594 538.542969 335.230469 C 538.390625 331.632812 538.335938 328.023438 538.128906 324.429688 C 538.042969 323.058594 538.46875 322.511719 539.820312 322.527344 Z M 572.015625 367.796875 C 572.175781 369.378906 572.234375 372.019531 571.417969 373.253906 C 570.46875 374.59375 568.1875 374.980469 566.492188 375.777344 C 565.132812 376.417969 563.753906 377.03125 562.394531 377.6875 C 560.539062 378.472656 561.871094 375.320312 561.832031 374.472656 C 562.402344 370.839844 563.011719 367.210938 563.496094 363.570312 C 563.640625 362.535156 563.9375 362.058594 565.046875 362.105469 C 566.835938 362.179688 568.636719 362.207031 570.421875 362.144531 C 573.164062 361.964844 571.625 366.09375 572.015625 367.796875 Z M 574.945312 380.148438 C 575.4375 379.84375 575.78125 379.839844 575.964844 380.507812 C 576.289062 381.59375 577.523438 383.445312 575.597656 383.683594 C 573.269531 384.007812 570.957031 384.378906 568.195312 384.785156 C 568.035156 384.734375 568.402344 384.292969 568.492188 384.214844 C 570.632812 382.847656 572.792969 381.503906 574.945312 380.148438 Z M 562.167969 382.15625 C 564.394531 380.984375 566.660156 379.878906 568.933594 378.804688 C 569.230469 378.667969 569.648438 378.804688 570.011719 378.820312 C 567.398438 381.003906 564.207031 382.652344 561.324219 384.464844 C 559.710938 384.121094 561.503906 382.550781 562.167969 382.15625 Z M 561.832031 390.402344 C 566.351562 389.402344 570.910156 388.644531 575.429688 387.628906 C 576.511719 387.386719 577.074219 387.621094 577.1875 388.746094 C 577.054688 389.832031 578.335938 392.304688 576.574219 392.355469 C 571.445312 392.429688 566.6875 391.972656 562.078125 391.726562 C 561.714844 391.695312 561.371094 391.3125 561.019531 391.105469 C 561.292969 390.859375 561.527344 390.472656 561.832031 390.402344 Z M 516.363281 322.480469 C 521.679688 322.464844 526.972656 322.535156 532.28125 322.480469 C 533.464844 322.46875 533.960938 322.871094 533.90625 324.144531 C 533.722656 328.121094 533.566406 332.097656 533.566406 336.070312 C 533.574219 337.902344 532.546875 339.070312 531.484375 340.261719 C 531.050781 340.601562 530.570312 340.710938 530.035156 340.578125 C 521.984375 337.890625 517.378906 332.066406 515.054688 324.117188 C 514.625 322.65625 515.21875 322.472656 516.363281 322.480469 Z M 506.332031 358.273438 C 511.089844 357 515.773438 355.558594 520.605469 354.570312 C 527.835938 355.980469 535.066406 357.578125 542.367188 358.476562 C 548.414062 359.066406 554.898438 356.871094 560.882812 357.855469 C 560.695312 358.167969 560.585938 358.585938 560.3125 358.746094 C 556.894531 360.78125 553.0625 362.003906 549.421875 363.558594 C 548.554688 363.910156 547.664062 364.144531 547.710938 362.707031 C 547.773438 361.097656 546.042969 361.21875 544.917969 361.113281 C 535.554688 360.683594 526.183594 360.261719 516.808594 359.839844 C 513.3125 359.683594 509.808594 359.476562 506.3125 359.28125 C 504.875 359.171875 505.339844 358.851562 506.332031 358.273438 Z M 477.5 352.617188 C 476.257812 355.859375 474.300781 359.738281 474.652344 353.273438 C 474.953125 349.132812 474.953125 349.167969 470.699219 349.007812 C 469.882812 348.976562 468.8125 349.5625 468.242188 348.390625 C 471.007812 347.589844 474.195312 348.769531 476.4375 346.558594 C 480.269531 343.363281 485.726562 341.207031 490.355469 344.226562 C 485.375 345.9375 479.226562 346.742188 477.5 352.617188 Z M 383.847656 423.015625 C 388.359375 422.136719 393.046875 422.964844 397.585938 423.324219 C 406.800781 424.058594 416.03125 424.695312 425.207031 425.84375 C 432.648438 426.601562 440.042969 427.734375 447.460938 428.699219 C 448.105469 428.769531 448.828125 428.699219 448.980469 429.5 C 448.570312 430.054688 447.523438 429.808594 446.882812 429.832031 C 434.894531 428.714844 422.917969 427.617188 410.933594 426.464844 C 401.886719 425.542969 392.84375 424.605469 383.804688 423.59375 C 383.082031 423.527344 382.851562 423.167969 383.851562 423.015625 Z M 446.390625 416.136719 C 447.464844 416.792969 449.863281 417.800781 448.976562 419.382812 C 448.871094 419.558594 448.148438 419.511719 447.789062 419.367188 C 435.082031 414.203125 422.503906 408.75 410.050781 403.003906 C 409.015625 402.582031 406.441406 401.257812 409.300781 401.367188 C 422.015625 405.144531 434.046875 411.242188 446.390625 416.140625 Z M 439.703125 403.40625 C 440.347656 402.992188 441.089844 403.476562 441.808594 403.660156 C 443.953125 404.382812 446.113281 405.042969 448.203125 405.894531 C 448.917969 406.265625 450.210938 407.640625 449.425781 408.480469 C 449.015625 408.671875 448.601562 408.679688 448.183594 408.496094 C 445.355469 406.808594 442.421875 405.253906 439.703125 403.40625 Z M 288.96875 392 C 278.335938 402.691406 277.140625 419.480469 279.945312 433.589844 C 279.859375 434.78125 283.515625 441.542969 281.125 439.824219 C 270.59375 430.003906 274.800781 399.078125 286.226562 390.964844 C 287.460938 389.871094 288.984375 390.109375 290.5 390.152344 C 290.027344 390.800781 289.519531 391.414062 288.96875 392 Z M 266.296875 409.335938 C 265.378906 414.226562 265.585938 419.371094 264.335938 424.152344 C 262.585938 411.878906 263.714844 399.8125 268.113281 389.574219 C 270.726562 384.148438 273.984375 377.789062 280.183594 376 C 281.285156 375.902344 281.472656 376.027344 280.648438 376.941406 C 271.859375 385.964844 268.113281 397.242188 266.296875 409.335938 Z M 234.746094 372.996094 C 241.382812 365.421875 251.585938 365.734375 260.8125 365.214844 C 271.339844 365.9375 282.589844 365.335938 292.28125 369.847656 C 285.488281 369.296875 280.28125 370.109375 274.464844 373.847656 C 273.140625 374.65625 271.71875 374.917969 270.195312 374.640625 C 258.589844 373.316406 246.753906 371.902344 235.125 373.648438 C 234.265625 373.882812 234.214844 373.820312 234.746094 372.996094 Z M 214.390625 456.101562 C 227.308594 453.730469 240.183594 451.066406 253.328125 450.390625 C 265.789062 450.023438 267.59375 461.191406 265.878906 469.941406 C 265.585938 470.769531 265.457031 470.667969 265.171875 469.890625 C 261.980469 462.257812 255.898438 458.527344 247.988281 457.890625 C 239.496094 457.207031 230.96875 457.023438 222.453125 456.648438 C 221.097656 456.425781 212.160156 456.78125 214.390625 456.101562 Z M 219.4375 463.253906 C 229.058594 460.925781 239.355469 461.363281 249.082031 462.925781 C 256.109375 464.164062 265.472656 470.117188 262.59375 478.402344 C 261.957031 480.171875 261.828125 480.234375 260.199219 479.410156 C 257.746094 478.164062 255.292969 476.917969 252.90625 475.574219 C 235.484375 466.308594 215.015625 467.882812 196.253906 463.753906 C 203.660156 463.378906 211.921875 465.421875 219.4375 463.25 Z M 172.980469 453.660156 C 171.964844 453.3125 171.957031 453.15625 172.824219 452.535156 C 182.480469 448.382812 192.683594 445.8125 202.738281 442.851562 C 203.78125 442.449219 211.167969 441.347656 208.453125 442.4375 C 196.640625 446.328125 185.054688 450.523438 172.980469 453.65625 Z M 439.601562 490.765625 C 390.15625 494.34375 341.589844 496.15625 292.34375 492.050781 C 254.089844 489.617188 216.472656 482.089844 179.335938 472.910156 C 175.425781 471.851562 174.195312 471.4375 179.480469 471.945312 C 185.878906 472.667969 192.269531 473.425781 198.671875 474.1875 C 200.40625 474.558594 202.0625 474.332031 203.636719 473.511719 C 205.886719 472.378906 208.261719 471.640625 210.757812 471.300781 C 213.253906 470.957031 215.742188 471.027344 218.214844 471.511719 C 229.683594 473.203125 240.851562 476.070312 251.71875 480.109375 C 266.019531 485.398438 281.511719 485.363281 296.472656 487.277344 C 311.109375 488.652344 325.851562 488.980469 340.539062 489.070312 C 352.371094 488.746094 364.179688 487.34375 376.011719 486.777344 C 397.136719 485.582031 418.269531 484.441406 439.402344 483.636719 C 441.367188 483.554688 441.386719 483.546875 441.507812 485.582031 C 441.570312 486.625 441.613281 487.671875 441.585938 488.714844 C 441.527344 490.445312 441.382812 490.636719 439.601562 490.765625 Z M 439.175781 478.90625 C 409.105469 479.800781 378.8125 479.398438 349.054688 484.347656 C 340.570312 485.847656 360.78125 477.898438 362.132812 476.902344 C 377.507812 469.640625 394.648438 471.671875 411.074219 472.183594 C 419.785156 472.507812 428.496094 472.894531 437.207031 473.261719 C 440.15625 473.519531 441.945312 472.609375 441.675781 476.382812 C 441.722656 478.816406 441.722656 478.839844 439.171875 478.90625 Z M 442.484375 468.347656 C 435.074219 469.34375 427.316406 467.78125 419.832031 467.621094 C 412.640625 467.261719 405.445312 467.003906 396.574219 466.632812 C 384.675781 465.546875 368.972656 468.277344 357.761719 474.332031 C 356.71875 474.773438 352.25 477.554688 353.730469 475.769531 C 369.011719 462.988281 388.566406 456.128906 408.539062 458.667969 C 423.046875 460.039062 437.453125 462.398438 451.976562 463.667969 C 455.269531 463.925781 443.1875 468.332031 442.476562 468.347656 Z M 481.792969 456.203125 C 470.597656 461.667969 458.933594 466.195312 447.554688 471.285156 C 446.671875 471.613281 445.765625 471.855469 444.832031 472.007812 C 444.558594 472.007812 444.34375 471.894531 444.195312 471.664062 C 444.234375 470.519531 446.554688 469.863281 447.441406 469.269531 C 457.164062 464.839844 466.894531 460.433594 476.636719 456.046875 C 478.300781 455.4375 480.128906 454.578125 481.546875 454.964844 C 482.117188 455.351562 482.628906 455.730469 481.78125 456.203125 Z M 469.640625 381.523438 C 457.21875 381.992188 454.210938 399.605469 452 409.304688 C 451.8125 410.105469 451.253906 415.15625 450.851562 412.796875 C 451.121094 410.066406 451.308594 407.320312 451.710938 404.609375 C 452.375 400.125 452.265625 400.71875 448.472656 400.429688 C 430.1875 399.355469 411.957031 397.90625 393.761719 395.765625 C 392.457031 395.636719 392.378906 394.601562 393.769531 394.640625 C 406.363281 395.105469 418.941406 396.453125 431.546875 396.855469 C 432.988281 396.792969 432.601562 396.398438 431.554688 395.996094 C 427.570312 394.035156 423.585938 392.074219 419.597656 390.113281 C 417.230469 388.605469 420.195312 389.136719 421.082031 389.453125 C 428.113281 391.96875 434.8125 396.371094 442.140625 397.726562 C 444.976562 397.933594 447.820312 398.121094 450.640625 398.472656 C 452.0625 398.640625 452.605469 398.03125 453.101562 396.84375 C 457.269531 385.328125 463.769531 375.96875 476.664062 374.066406 C 488.097656 372.03125 499.765625 373.082031 511.289062 373.59375 C 514.476562 373.984375 517.625 374.585938 520.734375 375.402344 C 521.039062 375.464844 521.273438 375.875 521.53125 376.128906 C 518.160156 376.371094 515.089844 377.457031 512.3125 379.386719 C 509.554688 381.25 507.0625 383.609375 503.429688 382.90625 C 492.207031 381.46875 480.945312 381.011719 469.640625 381.523438 Z M 526.894531 396.804688 C 527.089844 396.992188 527.269531 397.1875 527.433594 397.398438 C 526.140625 397.359375 521.207031 397.386719 520.296875 398.394531 C 520.183594 397.878906 520.601562 397.414062 520.984375 397.050781 C 521.152344 396.820312 521.34375 396.609375 521.558594 396.421875 C 521.769531 396.234375 522.003906 396.074219 522.253906 395.941406 C 522.503906 395.804688 522.769531 395.699219 523.042969 395.625 C 523.316406 395.550781 523.597656 395.507812 523.882812 395.496094 C 524.167969 395.484375 524.449219 395.503906 524.726562 395.554688 C 525.007812 395.609375 525.277344 395.691406 525.539062 395.804688 C 525.800781 395.917969 526.046875 396.058594 526.273438 396.226562 C 526.503906 396.398438 526.710938 396.589844 526.894531 396.804688 Z M 516.191406 463.066406 C 499.570312 452.480469 500.78125 400.59375 512.527344 386.59375 C 513.175781 385.800781 517.9375 381.394531 517.140625 384.246094 C 506.558594 402.652344 507.210938 426.519531 510.574219 446.878906 C 511.015625 449.652344 511.78125 452.328125 512.878906 454.914062 C 513.976562 457.5 515.371094 459.914062 517.058594 462.15625 C 517.265625 462.515625 517.414062 462.898438 517.507812 463.300781 C 517.058594 463.238281 516.515625 463.300781 516.191406 463.066406 Z M 531.21875 429.007812 C 531.136719 435.855469 530.160156 443.3125 525.714844 448.777344 C 521.339844 452.925781 517.453125 445.140625 516.882812 441.433594 C 516.878906 440.878906 517.105469 440.449219 517.566406 440.140625 C 528.542969 436.007812 531.65625 414.722656 531.21875 429.007812 Z M 535.703125 443.234375 C 534.375 447 533.144531 450.457031 534.332031 444.011719 C 535.710938 436.300781 536.375 428.527344 536.328125 420.695312 C 536.277344 412.859375 535.519531 405.097656 534.042969 397.402344 C 534.042969 396.40625 534.230469 395.960938 534.734375 397.222656 C 536.933594 404.710938 538.117188 412.359375 538.277344 420.164062 C 538.441406 427.96875 537.582031 435.660156 535.699219 443.234375 Z M 539.167969 368.984375 C 526.269531 365.664062 512.773438 366.535156 499.582031 365.707031 C 494.390625 365.394531 489.113281 365.875 483.953125 365.3125 C 491.132812 363.445312 498.433594 362.554688 505.851562 362.644531 C 517.035156 363.128906 528.222656 363.65625 539.410156 363.9375 C 542.023438 364.035156 542.023438 364.066406 542.0625 366.730469 C 542.113281 369.859375 542.101562 369.863281 539.167969 368.984375 Z M 585.988281 409.375 C 572.804688 415.851562 559.636719 422.363281 546.480469 428.910156 C 545.003906 429.632812 544.898438 429.523438 544.824219 428.003906 C 544.566406 422.980469 544.589844 423.054688 549.46875 421.664062 C 552.464844 420.8125 555.363281 419.636719 558.332031 418.671875 C 559.964844 418.144531 560.382812 417.089844 560.359375 415.449219 C 560.277344 409.757812 560.34375 404.0625 560.351562 398.367188 C 560.453125 397.039062 559.875 394.972656 561.886719 395.191406 C 566.726562 395.226562 571.558594 395.746094 576.398438 395.65625 C 579.070312 395.339844 578.269531 398.402344 579.113281 400.109375 C 580.914062 408.746094 590.582031 407.464844 585.988281 409.375 Z M 617.042969 345.558594 C 609.390625 345.402344 601.660156 344.5 594.050781 345.574219 C 586.042969 346.273438 585.550781 355.65625 583.578125 361.71875 C 581.84375 368.160156 582.171875 374.871094 581.464844 381.417969 C 580.378906 372.453125 581.085938 363.628906 583.585938 354.953125 C 585.398438 348.371094 589.429688 341.910156 596.578125 340.535156 C 604.214844 338.644531 628.644531 337.992188 634.929688 341.886719 C 633.777344 342.347656 632.296875 342.171875 631.289062 342.804688 C 626.882812 345.621094 622.046875 345.816406 617.042969 345.558594 Z M 633.441406 348.828125 C 628.726562 366.003906 629.488281 384.308594 631.84375 401.8125 C 631.878906 402.910156 631.710938 403.15625 631.046875 402.046875 C 626.855469 391.078125 626.875 379.097656 627.480469 367.546875 C 627.78125 360.703125 628.746094 353.597656 632.628906 347.738281 C 633.617188 346.441406 633.878906 347.78125 633.441406 348.828125 Z M 634.703125 383.957031 C 637.734375 382.765625 637.65625 379.648438 639.222656 377.429688 C 639.957031 382.421875 638.851562 387.65625 637.371094 392.445312 C 636.8125 393.675781 636.554688 393.863281 635.835938 392.597656 C 635.554688 390.460938 633.332031 385.585938 634.703125 383.957031 Z M 634.703125 383.957031 " fill-opacity="1" fill-rule="nonzero"/></g></svg>