<svg xmlns="http://www.w3.org/2000/svg" xmlns:xlink="http://www.w3.org/1999/xlink" width="1080" zoomAndPan="magnify" viewBox="0 0 810 809.999993" height="1080" preserveAspectRatio="xMidYMid meet" version="1.0"><defs><clipPath id="4d4cff4592"><path d="M 277 200.390625 L 533.152344 200.390625 L 533.152344 599 L 277 599 Z M 277 200.390625 " clip-rule="nonzero"/></clipPath><clipPath id="869d015aaf"><path d="M 282 548 L 343 548 L 343 609.890625 L 282 609.890625 Z M 282 548 " clip-rule="nonzero"/></clipPath></defs><g clip-path="url(#4d4cff4592)"><path fill="#4b9ed2" d="M 428.652344 517.09375 C 428.683594 518.667969 429 520.179688 429.597656 521.636719 C 430.964844 524.664062 431.59375 527.921875 432.773438 531.003906 C 433.914062 534.078125 435.535156 536.871094 437.640625 539.386719 C 439.539062 541.632812 440.804688 544.363281 442.613281 546.683594 C 444.214844 548.789062 445.605469 551.050781 447.304688 553.109375 C 449.003906 555.328125 449.953125 557.832031 450.148438 560.621094 C 450.316406 562.476562 450.414062 565.527344 447.664062 566.804688 C 447.5625 566.832031 447.46875 566.878906 447.390625 566.949219 C 447.308594 567.015625 447.242188 567.09375 447.195312 567.1875 C 447.152344 567.285156 447.125 567.382812 447.121094 567.488281 C 447.117188 567.59375 447.132812 567.695312 447.171875 567.792969 C 447.644531 569.242188 447.238281 570.726562 447.332031 572.1875 C 447.398438 573.386719 447.03125 573.84375 445.863281 573.703125 C 444.453125 573.472656 443.816406 573.746094 443.980469 575.445312 C 444.207031 577.691406 442.082031 578.828125 439.917969 577.933594 C 438.992188 577.550781 438.320312 578.339844 438.144531 579.132812 C 437.804688 580.644531 436.710938 580.59375 435.65625 580.417969 C 435.234375 580.316406 434.804688 580.296875 434.371094 580.355469 C 433.9375 580.417969 433.53125 580.554688 433.152344 580.769531 C 432.769531 580.984375 432.441406 581.261719 432.167969 581.605469 C 431.894531 581.945312 431.691406 582.324219 431.5625 582.742188 C 431.425781 583.179688 431.1875 583.558594 430.847656 583.871094 C 430.507812 584.183594 430.113281 584.390625 429.664062 584.492188 C 429.214844 584.589844 428.769531 584.574219 428.328125 584.433594 C 427.890625 584.296875 427.511719 584.058594 427.199219 583.71875 C 426.746094 583.253906 426.226562 582.878906 425.640625 582.589844 C 422.324219 580.976562 420.964844 578.621094 421.652344 574.863281 C 422.335938 570.445312 422.355469 566.023438 421.710938 561.597656 C 420.816406 561.773438 421.355469 563.03125 420.425781 563.109375 C 420.226562 562.921875 420.101562 562.691406 420.050781 562.421875 C 420 562.152344 420.039062 561.894531 420.160156 561.648438 C 420.808594 559.699219 420.234375 557.585938 421.058594 555.664062 C 421.363281 554.941406 421.453125 554.003906 420.773438 553.539062 C 420.09375 553.074219 419.382812 553.847656 418.835938 554.367188 C 418.289062 554.890625 417.691406 555.570312 417.070312 556.109375 C 416.894531 556.289062 416.679688 556.386719 416.429688 556.394531 C 416.179688 556.40625 415.957031 556.332031 415.765625 556.167969 C 415.261719 555.71875 415.636719 555.273438 415.910156 554.917969 C 416.816406 553.816406 417.867188 552.871094 419.058594 552.082031 C 419.886719 551.507812 419.886719 551.042969 419.421875 550.207031 C 417.882812 547.511719 417.175781 544.550781 416.40625 541.558594 C 415.859375 539.4375 414.546875 537.523438 414.953125 535.175781 C 412.765625 533.949219 412.832031 531.34375 411.554688 529.554688 C 410.824219 528.519531 410.496094 527.167969 408.960938 526.902344 C 408.75 526.847656 408.574219 526.734375 408.4375 526.5625 C 408.300781 526.394531 408.230469 526.199219 408.222656 525.980469 C 408.148438 523.046875 405.734375 521.4375 404.34375 519.296875 C 400.363281 513.203125 395.621094 507.691406 391.078125 501.988281 C 387.53125 497.511719 384.652344 492.644531 382.445312 487.378906 C 380.796875 483.628906 378.492188 480.339844 375.53125 477.511719 C 371.144531 473.125 366.023438 469.121094 363.707031 462.953125 C 363.316406 462.023438 362.832031 461.144531 362.257812 460.316406 C 358.84375 454.871094 358.503906 449.097656 360.5 443.113281 C 361.394531 440.425781 362.441406 437.78125 363.5 435.152344 C 363.867188 434.234375 363.957031 433.5625 363.09375 432.847656 C 361.289062 431.382812 360.773438 429.058594 359.53125 427.203125 C 359.265625 426.710938 359.210938 426.195312 359.363281 425.660156 C 359.945312 423.769531 359.230469 422.261719 358.3125 420.6875 C 356.734375 418.015625 355.628906 415.164062 354.996094 412.128906 C 354.554688 409.972656 353.335938 408.058594 352.773438 405.984375 C 352.101562 403.390625 350.527344 401.558594 348.941406 399.609375 C 347.027344 397.238281 346.207031 394.253906 344.796875 391.601562 C 344.128906 390.277344 343.277344 389.089844 342.242188 388.027344 C 338.785156 384.59375 336.488281 380.382812 334.558594 375.988281 C 331.253906 368.582031 328.507812 360.972656 326.316406 353.164062 C 325.976562 351.929688 325.652344 351.679688 324.492188 352.410156 C 321.511719 354.257812 318.347656 355.695312 315 356.730469 C 313.699219 357.136719 312.453125 357.671875 311.261719 358.339844 C 308.644531 359.804688 305.886719 360.917969 302.992188 361.6875 C 300.09375 362.457031 297.144531 362.855469 294.148438 362.882812 C 292.304688 362.9375 290.511719 363.277344 288.773438 363.902344 C 285.25 365.121094 282.757812 364.347656 280.535156 361.316406 C 277.265625 356.871094 276.679688 351.828125 277.839844 346.605469 C 279.023438 341.351562 279.71875 336.035156 279.929688 330.65625 C 280.171875 325.832031 281.160156 321.171875 282.898438 316.667969 C 284.5 312.230469 285.730469 307.691406 286.59375 303.054688 C 287.589844 297.988281 288.5 292.855469 289.8125 287.832031 C 290.847656 283.886719 292.9375 280.4375 295.21875 277.121094 C 297.066406 274.449219 299.113281 271.914062 301.113281 269.351562 C 302.121094 267.972656 303.433594 267.003906 305.050781 266.449219 C 305.652344 266.234375 306.207031 265.925781 306.707031 265.53125 C 311.011719 262.160156 315.824219 259.855469 321.144531 258.613281 C 322.394531 258.324219 322.667969 257.917969 322.039062 256.742188 C 320.035156 252.699219 319.03125 248.425781 319.019531 243.914062 C 318.9375 241.660156 317.519531 239.769531 317.261719 237.480469 C 317.179688 236.726562 316.632812 236.046875 317.148438 235.226562 C 317.511719 234.628906 317.148438 234.089844 316.914062 233.566406 C 315.722656 230.523438 314.757812 227.433594 315.058594 224.097656 C 315.058594 223.660156 315.058594 223.195312 314.683594 222.988281 C 313.101562 222.160156 313.753906 221.230469 314.558594 220.3125 C 315.191406 219.515625 315.597656 218.617188 315.769531 217.617188 C 316.175781 216.128906 316.980469 214.898438 318.175781 213.925781 C 319.527344 212.722656 321.078125 211.753906 321.34375 209.738281 C 321.382812 209.460938 321.511719 209.226562 321.726562 209.042969 C 321.9375 208.859375 322.1875 208.769531 322.46875 208.769531 C 324.226562 208.769531 325.445312 207.558594 326.914062 206.894531 C 327.195312 206.78125 327.425781 206.601562 327.601562 206.351562 C 327.777344 206.101562 327.871094 205.824219 327.882812 205.519531 C 327.882812 203.730469 329.136719 203.171875 330.546875 203.074219 C 333.695312 202.863281 336.734375 202.167969 339.664062 200.992188 C 340 200.84375 340.347656 200.820312 340.703125 200.917969 C 342.144531 201.53125 343.578125 202.039062 345.171875 201.523438 C 345.867188 203.324219 348.097656 202.351562 349.148438 203.804688 C 349.34375 204.101562 349.578125 204.363281 349.855469 204.585938 C 350.136719 204.804688 350.441406 204.976562 350.777344 205.097656 C 351.109375 205.21875 351.457031 205.285156 351.8125 205.292969 C 352.167969 205.300781 352.515625 205.253906 352.855469 205.144531 C 353.910156 204.832031 354.4375 205.660156 354.84375 206.429688 C 355.359375 207.453125 356.160156 208.136719 357.25 208.488281 C 359.089844 209.167969 359.851562 210.84375 359.996094 212.632812 C 360.035156 213.574219 360.238281 214.476562 360.597656 215.34375 C 361.367188 217.042969 361.699219 218.824219 361.59375 220.683594 C 361.460938 224.480469 362.707031 228.144531 362.523438 231.984375 C 362.523438 232.746094 363.128906 232.738281 363.585938 232.945312 C 365.539062 233.832031 366.195312 234.902344 365.816406 237.015625 C 365.445312 239.230469 364.953125 241.417969 364.339844 243.574219 C 364.125 244.515625 363.703125 245.359375 363.082031 246.097656 C 362.460938 246.839844 361.707031 247.394531 360.816406 247.769531 C 360.550781 247.832031 360.339844 247.976562 360.179688 248.199219 C 360.023438 248.421875 359.957031 248.667969 359.984375 248.9375 C 360.144531 251.234375 359.984375 253.550781 360.382812 255.835938 C 360.664062 257.414062 361.535156 258.050781 362.980469 257.660156 C 365.34375 257.03125 367.507812 256.996094 369.421875 258.804688 C 369.933594 259.136719 370.484375 259.234375 371.078125 259.105469 C 374.394531 258.898438 377.585938 259.105469 380.449219 261.027344 C 380.707031 261.238281 381 261.359375 381.328125 261.390625 C 381.660156 261.425781 381.96875 261.363281 382.265625 261.210938 C 385.347656 259.492188 388.398438 259.882812 391.425781 261.367188 C 391.90625 261.667969 392.429688 261.859375 392.992188 261.941406 C 393.554688 262.019531 394.109375 261.984375 394.660156 261.832031 C 395.210938 261.683594 395.722656 261.773438 396.191406 262.097656 C 396.417969 262.25 396.660156 262.363281 396.921875 262.4375 C 397.179688 262.511719 397.449219 262.539062 397.71875 262.527344 C 397.988281 262.511719 398.25 262.457031 398.503906 262.359375 C 398.757812 262.257812 398.984375 262.121094 399.195312 261.949219 C 401.589844 260 404.210938 260.785156 406.789062 261.160156 C 407.585938 261.367188 408.398438 261.472656 409.226562 261.476562 C 414.796875 260.871094 420.425781 261.183594 425.980469 260.230469 C 428.535156 259.792969 431.140625 259.625 433.683594 259.105469 C 434.335938 258.949219 434.984375 258.964844 435.625 259.160156 C 436.269531 259.355469 436.816406 259.699219 437.273438 260.191406 C 438.0625 260.996094 438.964844 261.644531 439.976562 262.136719 C 440.988281 262.628906 442.058594 262.9375 443.175781 263.058594 C 447.03125 263.664062 450.730469 264.980469 454.460938 266.09375 C 457.605469 267.027344 460.300781 268.683594 462.554688 271.066406 C 468.761719 277.558594 475.273438 283.769531 481.148438 290.578125 C 483.011719 292.625 485.023438 294.515625 487.1875 296.246094 C 490.546875 299.210938 493.660156 302.421875 496.519531 305.871094 C 497.132812 306.585938 496.71875 307.53125 497.132812 308.410156 C 498.675781 311.5625 501.222656 313.59375 504.230469 315.160156 C 504.902344 315.507812 505.683594 315.699219 505.847656 316.625 C 506.3125 319.289062 508.675781 320.125 510.640625 320.886719 C 512.40625 321.566406 513.640625 322.984375 515.441406 323.574219 C 516.203125 323.824219 516.792969 324.320312 517.671875 324.039062 C 517.921875 323.933594 518.183594 323.878906 518.453125 323.867188 C 518.722656 323.859375 518.988281 323.902344 519.242188 323.988281 C 519.5 324.078125 519.730469 324.210938 519.941406 324.382812 C 520.148438 324.558594 520.316406 324.761719 520.449219 325 C 520.746094 325.480469 521.125 325.882812 521.585938 326.203125 C 522.050781 326.523438 522.558594 326.738281 523.109375 326.847656 C 524.433594 327.238281 525.628906 327.867188 526.699219 328.730469 C 528.300781 329.941406 529.941406 331.09375 531.617188 332.203125 C 531.898438 332.371094 532.148438 332.570312 532.371094 332.8125 C 532.589844 333.054688 532.765625 333.324219 532.902344 333.621094 C 533.039062 333.917969 533.125 334.230469 533.164062 334.554688 C 533.203125 334.878906 533.195312 335.199219 533.132812 335.519531 C 532.941406 336.871094 532.179688 337.378906 530.878906 336.9375 C 530.046875 336.59375 529.183594 336.371094 528.292969 336.269531 C 529.070312 336.949219 529.84375 337.644531 530.636719 338.308594 C 531.515625 339.003906 532.019531 339.914062 532.148438 341.027344 C 532.414062 343.324219 530.9375 344.632812 528.648438 344.085938 C 527.148438 343.625 525.855469 342.832031 524.761719 341.707031 C 523.171875 340.148438 521.328125 339.011719 519.222656 338.300781 C 518.890625 338.199219 518.566406 337.984375 518.136719 338.300781 C 518.628906 339.511719 519.414062 340.492188 520.492188 341.242188 C 521.941406 342.460938 523.382812 343.679688 524.808594 344.914062 C 526.101562 346.035156 526.167969 347.261719 525.234375 348.671875 C 524.296875 350.082031 523.351562 350.585938 521.800781 349.882812 C 521.351562 349.714844 520.894531 349.585938 520.425781 349.492188 C 520.796875 350.976562 520.9375 352.269531 519.28125 353.066406 C 517.621094 353.859375 516.179688 353.296875 514.828125 352.351562 C 513.785156 351.675781 512.796875 350.921875 511.867188 350.097656 C 508.839844 347.253906 505.078125 345.414062 501.917969 342.71875 C 501.800781 342.578125 501.65625 342.472656 501.492188 342.394531 C 501.324219 342.320312 501.152344 342.28125 500.96875 342.28125 C 500.785156 342.28125 500.613281 342.320312 500.445312 342.394531 C 500.28125 342.472656 500.140625 342.578125 500.019531 342.71875 C 499.882812 342.859375 499.78125 343.023438 499.710938 343.207031 C 499.644531 343.394531 499.617188 343.585938 499.632812 343.78125 C 499.644531 343.976562 499.699219 344.164062 499.789062 344.339844 C 499.882812 344.511719 500.003906 344.660156 500.160156 344.78125 C 501.273438 345.925781 502.449219 347.003906 503.570312 348.140625 C 504.839844 349.320312 505.824219 350.699219 506.527344 352.285156 C 507.09375 353.726562 507.027344 355.15625 505.796875 356.183594 C 504.570312 357.210938 503.535156 356.289062 502.574219 355.660156 C 498.429688 352.90625 494.488281 349.914062 492.0625 345.347656 C 491.097656 343.546875 490.542969 341.8125 491.125 339.773438 C 491.488281 337.992188 491.378906 336.242188 490.792969 334.519531 C 490.519531 333.441406 490.039062 332.394531 490.3125 331.203125 C 490.460938 330.589844 489.953125 330.238281 489.632812 329.84375 C 486.609375 325.972656 483.929688 321.878906 481.589844 317.5625 C 479.871094 314.519531 477.128906 312.375 474.367188 310.332031 C 473.660156 309.886719 473.148438 309.28125 472.824219 308.507812 C 472.707031 308.09375 472.46875 307.769531 472.105469 307.539062 C 469.617188 306.609375 468.574219 304.050781 466.359375 302.621094 C 463.773438 300.964844 461.550781 298.476562 459.097656 296.460938 C 458.191406 295.707031 457.3125 294.507812 456.300781 294.367188 C 454.039062 294.042969 452.984375 292.78125 451.660156 291.050781 C 451.121094 290.28125 450.433594 289.683594 449.601562 289.253906 C 448.769531 288.824219 447.886719 288.609375 446.949219 288.613281 C 446.078125 288.613281 445.457031 288.792969 445.199219 289.6875 C 445.109375 290.003906 444.96875 290.296875 444.785156 290.566406 C 444.601562 290.839844 444.382812 291.078125 444.125 291.28125 C 443.871094 291.484375 443.585938 291.644531 443.28125 291.757812 C 442.976562 291.875 442.660156 291.941406 442.332031 291.960938 C 438.832031 292.515625 435.324219 293.578125 431.84375 293.503906 C 427.855469 293.421875 424.007812 294.132812 420.105469 294.332031 C 417.003906 294.480469 414.066406 294.621094 411.257812 296.054688 C 409.941406 296.710938 408.558594 296.902344 407.113281 296.636719 C 405.628906 296.378906 405.496094 296.925781 405.742188 298.238281 C 406.707031 303.410156 407.402344 308.625 407.972656 313.855469 C 408.628906 319.820312 408.378906 325.789062 408.28125 331.757812 C 408.230469 334.5 408.984375 336.632812 411.414062 338.234375 C 413.703125 339.734375 414.425781 342.378906 415.386719 344.816406 C 415.734375 345.785156 416.371094 346.503906 417.292969 346.964844 C 422.042969 349.523438 424.40625 353.859375 425.882812 358.820312 C 425.882812 358.867188 425.882812 358.945312 425.882812 358.992188 C 428.296875 363.535156 430.433594 368.269531 434.230469 371.917969 C 434.738281 372.40625 435.144531 372.824219 435.058594 373.578125 C 434.824219 376.960938 435.328125 380.234375 436.570312 383.394531 C 436.722656 383.714844 436.789062 384.050781 436.777344 384.40625 C 435.664062 390.035156 435.839844 395.820312 434.554688 401.425781 C 433.964844 404.496094 432.921875 407.398438 431.421875 410.140625 C 429.695312 413.035156 428.105469 416.019531 426.445312 418.953125 C 425.867188 419.980469 425.410156 421.199219 424.546875 421.921875 C 422.203125 423.871094 422.738281 425.710938 423.808594 428.179688 C 425.90625 432.988281 427.796875 437.898438 429.753906 442.773438 C 430.773438 445.316406 431.414062 447.988281 433.070312 450.285156 C 433.535156 450.996094 433.769531 451.78125 433.773438 452.632812 C 433.832031 455.128906 434.527344 457.4375 435.855469 459.554688 C 436.527344 460.640625 436.726562 461.824219 435.070312 462.382812 C 434.429688 462.597656 434.589844 463.0625 434.746094 463.542969 C 436.726562 469.667969 438.652344 475.820312 440.691406 481.929688 C 441.519531 484.417969 443.335938 486.390625 444.527344 488.703125 C 444.761719 489.152344 445.257812 489.277344 445.648438 489.535156 C 449.054688 491.765625 453.042969 493.480469 455.796875 496.273438 C 460.605469 501.175781 466.078125 505.816406 468.332031 512.742188 C 469.242188 515.527344 471.292969 517.390625 473.355469 519.230469 C 474.636719 520.292969 475.769531 521.492188 476.753906 522.832031 C 477.449219 523.949219 478.339844 524.882812 479.425781 525.625 C 480.042969 526.027344 480.46875 526.578125 480.695312 527.28125 C 480.816406 527.8125 481.070312 528.269531 481.460938 528.648438 C 481.851562 529.03125 482.316406 529.273438 482.847656 529.378906 C 483.179688 529.441406 483.472656 529.578125 483.734375 529.789062 C 483.992188 529.996094 484.1875 530.257812 484.316406 530.566406 C 485.609375 533.773438 488.082031 536.070312 490.710938 538.027344 C 494.066406 540.515625 496.511719 544.128906 500.433594 545.929688 C 503.410156 547.382812 506.285156 549.011719 509.058594 550.820312 C 510.492188 551.726562 511.761719 552.820312 512.863281 554.109375 C 513.964844 555.398438 514.851562 556.824219 515.523438 558.382812 C 516.054688 559.390625 516.347656 560.464844 516.402344 561.605469 C 516.402344 563.265625 516.402344 564.882812 518.0625 565.910156 C 518.632812 566.25 518.609375 566.898438 518.195312 567.476562 C 517.777344 568.058594 517.28125 568.621094 516.3125 568.398438 C 514.089844 567.898438 513.683594 568.304688 513.949219 570.636719 C 514.023438 571.273438 514.222656 571.90625 514.320312 572.542969 C 514.585938 574.265625 513.453125 575.230469 511.835938 574.707031 C 511.378906 574.527344 510.910156 574.433594 510.421875 574.425781 C 509.929688 574.417969 509.457031 574.5 509 574.667969 C 508.539062 574.835938 508.125 575.082031 507.757812 575.402344 C 507.390625 575.722656 507.089844 576.097656 506.859375 576.53125 C 505.960938 577.925781 505.292969 579.421875 504.851562 581.023438 C 504.410156 582.621094 504.21875 584.25 504.273438 585.90625 C 504.449219 588.15625 504.410156 590.398438 504.15625 592.640625 C 503.792969 595.394531 503.328125 596.023438 500.558594 596.742188 C 496.273438 597.71875 491.9375 598.183594 487.542969 598.144531 C 485.351562 598.285156 483.167969 598.222656 480.992188 597.953125 C 478.597656 597.566406 478.105469 596.628906 479.449219 594.589844 C 480.578125 592.878906 481.148438 590.574219 483.679688 590.144531 C 484.40625 590.019531 484.21875 589.316406 484.191406 588.835938 C 484.027344 587.84375 484.234375 586.941406 484.8125 586.125 C 486.140625 584.679688 485.902344 583.214844 485.335938 581.554688 C 484.296875 578.625 483.8125 575.609375 483.878906 572.5 C 483.878906 571.929688 484.292969 571.027344 482.882812 571.355469 C 482.113281 571.546875 481.773438 570.527344 481.980469 569.839844 C 482.175781 569.023438 482.574219 568.316406 483.171875 567.726562 C 484.492188 566.664062 484.234375 565.503906 483.726562 564.25 C 483.425781 563.417969 483.046875 562.621094 482.585938 561.863281 C 479.992188 558.125 476.875 554.890625 473.230469 552.164062 C 469.914062 549.617188 467.0625 546.492188 463.398438 544.355469 C 462.257812 543.625 461.058594 543.007812 459.800781 542.503906 C 456.738281 541.449219 453.847656 540.035156 451.132812 538.269531 C 448.417969 536.5 445.957031 534.429688 443.75 532.058594 C 441.332031 529.570312 438.710938 527.328125 435.882812 525.324219 C 433.648438 523.628906 431.761719 521.609375 430.21875 519.265625 C 429.777344 518.644531 429.339844 518.039062 428.652344 517.09375 Z M 311.46875 315.167969 C 309.527344 316.519531 309.503906 316.511719 309.320312 318.707031 C 309.277344 319.625 308.96875 320.4375 308.390625 321.152344 C 307.910156 321.679688 307.558594 322.285156 307.335938 322.964844 C 307.117188 323.644531 307.042969 324.339844 307.121094 325.050781 C 307.144531 325.53125 307.042969 325.984375 306.816406 326.410156 C 305.574219 329.003906 305.382812 331.898438 304.1875 334.558594 C 305.289062 334.910156 306.410156 335.003906 307.554688 334.839844 C 310.089844 334.386719 312.636719 333.921875 315.140625 333.308594 C 317.644531 332.695312 317.882812 332.261719 316.699219 329.851562 C 316.277344 328.875 315.726562 327.984375 315.039062 327.171875 C 313.730469 325.722656 313 324.023438 312.859375 322.074219 C 312.546875 319.808594 312.453125 317.488281 311.46875 315.167969 Z M 311.46875 315.167969 " fill-opacity="1" fill-rule="nonzero"/></g><g clip-path="url(#869d015aaf)"><path fill="#4b9ed2" d="M 342.441406 579.117188 C 342.441406 580.105469 342.390625 581.089844 342.289062 582.074219 C 342.191406 583.058594 342.042969 584.035156 341.851562 585.003906 C 341.65625 585.972656 341.414062 586.925781 341.125 587.871094 C 340.835938 588.816406 340.5 589.746094 340.121094 590.660156 C 339.742188 591.570312 339.316406 592.460938 338.851562 593.332031 C 338.382812 594.203125 337.875 595.046875 337.324219 595.867188 C 336.773438 596.691406 336.183594 597.480469 335.554688 598.242188 C 334.925781 599.007812 334.261719 599.738281 333.5625 600.433594 C 332.863281 601.132812 332.132812 601.792969 331.367188 602.417969 C 330.601562 603.042969 329.808594 603.628906 328.984375 604.179688 C 328.164062 604.726562 327.316406 605.230469 326.445312 605.695312 C 325.570312 606.160156 324.679688 606.582031 323.765625 606.957031 C 322.851562 607.335938 321.921875 607.664062 320.976562 607.953125 C 320.03125 608.238281 319.074219 608.476562 318.101562 608.667969 C 317.132812 608.859375 316.15625 609 315.175781 609.097656 C 314.191406 609.191406 313.203125 609.238281 312.214844 609.238281 C 311.226562 609.238281 310.242188 609.1875 309.257812 609.089844 C 308.277344 608.992188 307.300781 608.84375 306.332031 608.652344 C 305.363281 608.457031 304.40625 608.21875 303.460938 607.929688 C 302.515625 607.640625 301.585938 607.308594 300.671875 606.929688 C 299.761719 606.550781 298.871094 606.125 298 605.660156 C 297.128906 605.191406 296.28125 604.683594 295.460938 604.136719 C 294.640625 603.585938 293.847656 602.996094 293.085938 602.371094 C 292.320312 601.742188 291.589844 601.078125 290.890625 600.378906 C 290.195312 599.679688 289.53125 598.949219 288.90625 598.183594 C 288.277344 597.417969 287.691406 596.625 287.144531 595.804688 C 286.59375 594.984375 286.089844 594.136719 285.625 593.265625 C 285.15625 592.390625 284.738281 591.5 284.359375 590.585938 C 283.980469 589.671875 283.648438 588.746094 283.363281 587.796875 C 283.078125 586.851562 282.835938 585.894531 282.644531 584.925781 C 282.453125 583.957031 282.308594 582.980469 282.210938 581.996094 C 282.117188 581.015625 282.066406 580.027344 282.066406 579.039062 C 282.066406 578.050781 282.117188 577.066406 282.214844 576.082031 C 282.3125 575.101562 282.457031 574.125 282.648438 573.15625 C 282.84375 572.183594 283.082031 571.226562 283.371094 570.28125 C 283.65625 569.335938 283.988281 568.40625 284.367188 567.496094 C 284.746094 566.582031 285.167969 565.691406 285.632812 564.820312 C 286.097656 563.949219 286.605469 563.101562 287.15625 562.28125 C 287.703125 561.457031 288.292969 560.664062 288.917969 559.902344 C 289.546875 559.136719 290.207031 558.40625 290.90625 557.707031 C 291.605469 557.007812 292.335938 556.347656 293.101562 555.71875 C 293.863281 555.09375 294.65625 554.503906 295.480469 553.953125 C 296.300781 553.40625 297.148438 552.898438 298.019531 552.433594 C 298.890625 551.964844 299.78125 551.542969 300.695312 551.164062 C 301.605469 550.785156 302.535156 550.453125 303.480469 550.167969 C 304.425781 549.878906 305.382812 549.640625 306.351562 549.445312 C 307.320312 549.253906 308.296875 549.109375 309.28125 549.011719 C 310.265625 548.914062 311.25 548.863281 312.238281 548.863281 C 313.226562 548.863281 314.214844 548.914062 315.199219 549.011719 C 316.1875 549.109375 317.164062 549.257812 318.136719 549.449219 C 319.105469 549.644531 320.0625 549.886719 321.011719 550.175781 C 321.957031 550.464844 322.890625 550.796875 323.804688 551.175781 C 324.71875 551.554688 325.609375 551.980469 326.484375 552.449219 C 327.355469 552.914062 328.203125 553.425781 329.027344 553.976562 C 329.847656 554.527344 330.644531 555.113281 331.40625 555.742188 C 332.171875 556.371094 332.90625 557.039062 333.605469 557.738281 C 334.304688 558.4375 334.964844 559.171875 335.59375 559.9375 C 336.222656 560.703125 336.808594 561.496094 337.359375 562.320312 C 337.910156 563.144531 338.417969 563.992188 338.882812 564.867188 C 339.347656 565.738281 339.769531 566.632812 340.148438 567.550781 C 340.527344 568.464844 340.859375 569.394531 341.144531 570.34375 C 341.433594 571.289062 341.671875 572.25 341.863281 573.21875 C 342.058594 574.191406 342.203125 575.167969 342.296875 576.15625 C 342.394531 577.140625 342.441406 578.128906 342.441406 579.117188 Z M 342.441406 579.117188 " fill-opacity="1" fill-rule="nonzero"/></g></svg>