<svg xmlns="http://www.w3.org/2000/svg" xmlns:xlink="http://www.w3.org/1999/xlink" width="1080" zoomAndPan="magnify" viewBox="0 0 810 809.999993" height="1080" preserveAspectRatio="xMidYMid meet" version="1.0"><defs><clipPath id="4c33d12257"><path d="M 226.597656 253.578125 L 583.597656 253.578125 L 583.597656 556.578125 L 226.597656 556.578125 Z M 226.597656 253.578125 " clip-rule="nonzero"/></clipPath></defs><g clip-path="url(#4c33d12257)"><path fill="#1b9e75" d="M 404.953125 253.542969 C 355.671875 253.542969 312.054688 263.929688 280.023438 281.421875 C 247.996094 298.917969 226.730469 324.386719 226.730469 353.964844 L 226.730469 556.414062 L 583.175781 556.414062 L 583.175781 435.734375 C 583.175781 412.410156 570.523438 390.757812 549.933594 379.65625 C 536.882812 372.609375 532.054688 368.628906 505.132812 358.421875 C 505.492188 358.554688 501.589844 356.4375 497.617188 353.199219 C 493.640625 349.960938 488.863281 345.5 484.179688 340.390625 C 474.8125 330.171875 466.144531 317.050781 464.023438 306.453125 C 459.097656 281.789062 447.871094 267.476562 435.621094 260.433594 C 423.371094 253.390625 410.933594 253.542969 404.953125 253.542969 Z M 404.953125 271.363281 C 410.933594 271.363281 419.105469 271.496094 426.746094 275.890625 C 427.976562 276.597656 429.203125 277.640625 430.433594 278.605469 C 430.683594 279.882812 430.992188 281.167969 430.992188 282.503906 L 430.992188 324.03125 C 422.613281 323.496094 413.863281 323.300781 404.953125 323.300781 C 396.042969 323.300781 387.292969 323.496094 378.917969 324.03125 L 378.917969 282.503906 C 378.917969 278.835938 380.023438 275.386719 381.734375 272.304688 C 389.3125 271.742188 397.015625 271.363281 404.953125 271.363281 Z M 340.765625 278.1875 C 341.75 280.386719 342.402344 282.761719 342.402344 285.324219 L 342.402344 331.304688 C 330.105469 333.085938 318.53125 335.585938 307.835938 338.613281 L 307.835938 288.246094 C 317.90625 284.28125 328.875 280.851562 340.765625 278.1875 Z M 268.953125 310.210938 L 268.953125 353.0625 C 259.792969 356.96875 251.582031 361.445312 244.554688 366.359375 L 244.554688 353.964844 C 244.554688 338.46875 253.015625 323.359375 268.953125 310.210938 Z M 404.953125 361.796875 C 419.390625 361.796875 430.992188 373.363281 430.992188 387.800781 L 430.992188 431.832031 C 421.722656 431.300781 412.972656 431.136719 404.953125 431.136719 C 396.933594 431.136719 388.183594 431.300781 378.917969 431.832031 L 378.917969 387.800781 C 378.917969 380.671875 381.976562 374.089844 386.609375 369.457031 C 391.242188 364.820312 397.824219 361.796875 404.953125 361.796875 Z M 325.101562 378.367188 C 334.726562 378.367188 342.402344 386.046875 342.402344 395.492188 L 342.402344 434.339844 C 330.816406 435.585938 319.0625 437.179688 307.835938 439.316406 L 307.835938 395.492188 C 307.835938 390.859375 309.78125 386.554688 312.988281 383.34375 C 316.019531 380.316406 320.289062 378.367188 325.101562 378.367188 Z M 484.804688 378.367188 C 489.617188 378.367188 493.890625 380.316406 496.917969 383.34375 C 500.128906 386.554688 502.070312 390.859375 502.070312 395.492188 L 502.070312 439.316406 C 490.84375 437.179688 479.089844 435.585938 467.503906 434.339844 L 467.503906 395.492188 C 467.503906 386.046875 475.183594 378.367188 484.804688 378.367188 Z M 268.953125 396.015625 L 268.953125 450.734375 C 259.789062 453.496094 251.804688 456.824219 244.554688 460.480469 L 244.554688 417.769531 C 247.804688 410.21875 256.191406 402.742188 268.953125 396.015625 Z M 545.792969 398.523438 C 557.832031 407.019531 565.355469 420.675781 565.355469 435.734375 L 565.355469 460.480469 C 558.101562 456.824219 550.121094 453.496094 540.953125 450.734375 L 540.953125 410.460938 C 540.953125 405.730469 542.6875 401.542969 545.792969 398.523438 Z M 404.953125 467.828125 C 419.390625 467.828125 430.992188 479.425781 430.992188 493.863281 L 430.992188 538.59375 L 378.917969 538.59375 L 378.917969 493.863281 C 378.917969 479.425781 390.519531 467.828125 404.953125 467.828125 Z M 325.101562 478.339844 C 334.726562 478.339844 342.402344 486.015625 342.402344 495.640625 L 342.402344 538.59375 L 307.835938 538.59375 L 307.835938 495.640625 C 307.835938 486.015625 315.476562 478.339844 325.101562 478.339844 Z M 484.804688 478.339844 C 494.429688 478.339844 502.070312 486.015625 502.070312 495.640625 L 502.070312 538.59375 L 467.503906 538.59375 L 467.503906 495.640625 C 467.503906 486.015625 475.183594 478.339844 484.804688 478.339844 Z M 268.953125 492.957031 L 268.953125 538.59375 L 244.554688 538.59375 L 244.554688 510.292969 C 248.164062 500.195312 257.730469 492.957031 268.953125 492.957031 Z M 540.953125 492.957031 C 552.175781 492.957031 561.742188 500.195312 565.355469 510.292969 L 565.355469 538.59375 L 540.953125 538.59375 Z M 540.953125 492.957031 " fill-opacity="1" fill-rule="nonzero"/></g></svg>